<svg id="visual" viewBox="0 0 960 150" width="960" height="150" xmlns="http://www.w3.org/2000/svg" xmlns:xlink="http://www.w3.org/1999/xlink" version="1.1"><path d="M0 16L17.8 16.8C35.7 17.7 71.3 19.3 106.8 19.7C142.3 20 177.7 19 213.2 17.7C248.7 16.3 284.3 14.7 320 16.2C355.7 17.7 391.3 22.3 426.8 23.2C462.3 24 497.7 21 533.2 20C568.7 19 604.3 20 640 19.7C675.7 19.3 711.3 17.7 746.8 18.3C782.3 19 817.7 22 853.2 24C888.7 26 924.3 27 942.2 27.5L960 28L960 0L942.2 0C924.3 0 888.7 0 853.2 0C817.7 0 782.3 0 746.8 0C711.3 0 675.7 0 640 0C604.3 0 568.7 0 533.2 0C497.7 0 462.3 0 426.8 0C391.3 0 355.7 0 320 0C284.3 0 248.7 0 213.2 0C177.7 0 142.3 0 106.8 0C71.3 0 35.7 0 17.8 0L0 0Z" fill="#a067ff"></path><path d="M0 30L17.8 30.5C35.7 31 71.3 32 106.8 32.7C142.3 33.3 177.7 33.7 213.2 31.3C248.7 29 284.3 24 320 23.8C355.7 23.7 391.3 28.3 426.8 29.7C462.3 31 497.7 29 533.2 29.5C568.7 30 604.3 33 640 34C675.7 35 711.3 34 746.8 33.7C782.3 33.3 817.7 33.7 853.2 33.8C888.7 34 924.3 34 942.2 34L960 34L960 26L942.2 25.5C924.3 25 888.7 24 853.2 22C817.7 20 782.3 17 746.8 16.3C711.3 15.7 675.7 17.3 640 17.7C604.3 18 568.7 17 533.2 18C497.7 19 462.3 22 426.8 21.2C391.3 20.3 355.7 15.7 320 14.2C284.3 12.7 248.7 14.3 213.2 15.7C177.7 17 142.3 18 106.8 17.7C71.3 17.3 35.7 15.7 17.8 14.8L0 14Z" fill="#8f4fff"></path><path d="M0 66L17.8 68.7C35.7 71.3 71.3 76.7 106.8 77.3C142.3 78 177.7 74 213.2 71.8C248.7 69.7 284.3 69.3 320 70.3C355.7 71.3 391.3 73.7 426.8 70.8C462.3 68 497.7 60 533.2 58.3C568.7 56.7 604.3 61.3 640 64.2C675.7 67 711.3 68 746.8 66.5C782.3 65 817.7 61 853.2 59C888.7 57 924.3 57 942.2 57L960 57L960 32L942.2 32C924.3 32 888.7 32 853.2 31.8C817.7 31.7 782.3 31.3 746.8 31.7C711.3 32 675.7 33 640 32C604.3 31 568.7 28 533.2 27.5C497.7 27 462.3 29 426.8 27.7C391.3 26.3 355.7 21.7 320 21.8C284.3 22 248.7 27 213.2 29.3C177.7 31.7 142.3 31.3 106.8 30.7C71.3 30 35.7 29 17.8 28.5L0 28Z" fill="#7c33ff"></path><path d="M0 86L17.8 87.3C35.7 88.7 71.3 91.3 106.8 91C142.3 90.7 177.7 87.3 213.2 86.3C248.7 85.3 284.3 86.7 320 86.8C355.7 87 391.3 86 426.8 83.3C462.3 80.7 497.7 76.3 533.2 75.7C568.7 75 604.3 78 640 79.7C675.7 81.3 711.3 81.7 746.8 80.3C782.3 79 817.7 76 853.2 74.3C888.7 72.7 924.3 72.3 942.2 72.2L960 72L960 55L942.2 55C924.3 55 888.7 55 853.2 57C817.7 59 782.3 63 746.8 64.5C711.3 66 675.7 65 640 62.2C604.3 59.3 568.7 54.7 533.2 56.3C497.7 58 462.3 66 426.8 68.8C391.3 71.7 355.7 69.3 320 68.3C284.3 67.3 248.7 67.7 213.2 69.8C177.7 72 142.3 76 106.8 75.3C71.3 74.7 35.7 69.3 17.8 66.7L0 64Z" fill="#6600ff"></path><path d="M0 109L17.8 109.8C35.7 110.7 71.3 112.3 106.8 114.8C142.3 117.3 177.7 120.7 213.2 122.3C248.7 124 284.3 124 320 123C355.7 122 391.3 120 426.8 117.8C462.3 115.7 497.7 113.3 533.2 113.8C568.7 114.3 604.3 117.7 640 117.8C675.7 118 711.3 115 746.8 113C782.3 111 817.7 110 853.2 111.5C888.7 113 924.3 117 942.2 119L960 121L960 70L942.2 70.2C924.3 70.3 888.7 70.7 853.2 72.3C817.7 74 782.3 77 746.8 78.3C711.3 79.7 675.7 79.3 640 77.7C604.3 76 568.7 73 533.2 73.7C497.7 74.3 462.3 78.7 426.8 81.3C391.3 84 355.7 85 320 84.8C284.3 84.7 248.7 83.3 213.2 84.3C177.7 85.3 142.3 88.7 106.8 89C71.3 89.3 35.7 86.7 17.8 85.3L0 84Z" fill="#5d01e8"></path><path d="M0 141L17.8 140.7C35.7 140.3 71.3 139.7 106.8 140.3C142.3 141 177.7 143 213.2 143.8C248.7 144.7 284.3 144.3 320 143.7C355.7 143 391.3 142 426.8 140C462.3 138 497.7 135 533.2 134C568.7 133 604.3 134 640 135C675.7 136 711.3 137 746.8 136.5C782.3 136 817.7 134 853.2 134.5C888.7 135 924.3 138 942.2 139.5L960 141L960 119L942.2 117C924.3 115 888.7 111 853.2 109.5C817.7 108 782.3 109 746.8 111C711.3 113 675.7 116 640 115.8C604.3 115.7 568.7 112.3 533.2 111.8C497.7 111.3 462.3 113.7 426.8 115.8C391.3 118 355.7 120 320 121C284.3 122 248.7 122 213.2 120.3C177.7 118.7 142.3 115.3 106.8 112.8C71.3 110.3 35.7 108.7 17.8 107.8L0 107Z" fill="#5402d1"></path><path d="M0 151L17.8 151C35.7 151 71.3 151 106.8 151C142.3 151 177.7 151 213.2 151C248.7 151 284.3 151 320 151C355.7 151 391.3 151 426.8 151C462.3 151 497.7 151 533.2 151C568.7 151 604.3 151 640 151C675.7 151 711.3 151 746.8 151C782.3 151 817.7 151 853.2 151C888.7 151 924.3 151 942.2 151L960 151L960 139L942.2 137.5C924.3 136 888.7 133 853.2 132.5C817.7 132 782.3 134 746.8 134.5C711.3 135 675.7 134 640 133C604.3 132 568.7 131 533.2 132C497.7 133 462.3 136 426.8 138C391.3 140 355.7 141 320 141.7C284.3 142.3 248.7 142.7 213.2 141.8C177.7 141 142.3 139 106.8 138.3C71.3 137.7 35.7 138.3 17.8 138.7L0 139Z" fill="#4b03ba"></path></svg>